<svg width="164" height="31" viewBox="0 0 164 31" version="1.1" xmlns="http://www.w3.org/2000/svg" xmlns:xlink="http://www.w3.org/1999/xlink">
<title>/ mini + text</title>
<desc>Created using Figma</desc>
<g id="Canvas" transform="translate(-2526 -200)">
<g id="Logo / KP / mini + text">
<g id="&#208;&#154;&#208;&#144;&#208;&#148;&#208;&#160;&#208;&#158;&#208;&#146;&#208;&#171;&#208;&#153; &#208;&#159;&#208;&#158;&#208;&#160;&#208;&#162;&#208;&#144;&#208;&#155; &#208;&#155;&#208;&#181;&#208;&#189;&#208;&#184;">
<use xlink:href="#path0_fill" transform="translate(2562 200)" fill="#FFFFFF"/>
</g>
<g id="Logo KP">
<g id="Rectangle 2">
<use xlink:href="#path1_fill" transform="translate(2529 209)" fill="#00A8E6"/>
</g>
<g id="Rectangle 2">
<use xlink:href="#path2_fill" transform="matrix(1 0 0 -1 2529 209)" fill="#FFFFFF"/>
</g>
<g id="Rectangle 2">
<use xlink:href="#path2_fill" transform="matrix(1 0 0 -1 2529 206)" fill="#FD0100"/>
</g>
<g id="&#208;&#154;&#208;&#159;">
<use xlink:href="#path3_fill" transform="translate(2529.5 209)" fill="#FFFFFF"/>
</g>
</g>
</g>
</g>
<defs>
<path id="path0_fill" d="M 1.18945 13L 1.18945 3.19727L 3.15137 3.19727L 3.15137 7.33301L 3.56836 7.33301C 3.92383 7.33301 4.18132 7.25781 4.34082 7.10742C 4.50033 6.95703 4.61654 6.7041 4.68945 6.34863L 5.11328 4.46191C 5.19531 4.06999 5.38216 3.73958 5.67383 3.4707C 5.97005 3.19727 6.36654 3.06055 6.86328 3.06055C 7.04102 3.06055 7.20052 3.07194 7.3418 3.09473C 7.48763 3.11751 7.61068 3.14258 7.71094 3.16992C 7.83398 3.20638 7.94792 3.24056 8.05273 3.27246L 7.90918 4.38672L 7.84082 4.38672C 7.82259 4.3776 7.79525 4.36849 7.75879 4.35938C 7.73145 4.35026 7.69954 4.34115 7.66309 4.33203C 7.63119 4.32292 7.59701 4.31836 7.56055 4.31836C 7.30078 4.31836 7.13672 4.48242 7.06836 4.81055L 6.71973 6.41699C 6.64681 6.74512 6.5306 7.00488 6.37109 7.19629C 6.21159 7.3877 6.04753 7.53581 5.87891 7.64062C 5.68294 7.75911 5.47331 7.84115 5.25 7.88672C 5.50065 7.93229 5.73307 8.02116 5.94727 8.15332C 6.13411 8.26725 6.31413 8.42676 6.4873 8.63184C 6.66048 8.83691 6.78581 9.10352 6.86328 9.43164L 7.28027 11.3867C 7.34408 11.7148 7.5127 11.8789 7.78613 11.8789C 7.83171 11.8789 7.89095 11.8698 7.96387 11.8516C 7.99121 11.8424 8.02083 11.8288 8.05273 11.8105L 8.12109 11.8105L 8.25781 12.9316C 8.16667 12.9681 8.06413 13.0046 7.9502 13.041C 7.84538 13.0684 7.71777 13.0911 7.56738 13.1094C 7.42155 13.1276 7.25521 13.1367 7.06836 13.1367C 6.57161 13.1367 6.17741 13.0023 5.88574 12.7334C 5.59408 12.4645 5.40495 12.1341 5.31836 11.7422L 4.83301 9.5C 4.76009 9.18099 4.64616 8.95085 4.49121 8.80957C 4.33626 8.66374 4.09928 8.59082 3.78027 8.59082L 3.15137 8.59082L 3.15137 13L 1.18945 13ZM 8.8252 13L 11.6963 3.19727L 13.9316 3.19727L 16.8027 13L 14.8408 13L 14.2119 10.7578L 11.416 10.7578L 10.7803 13L 8.8252 13ZM 11.7646 9.5L 13.8633 9.5L 13.0225 6.56055C 12.986 6.44661 12.9587 6.3304 12.9404 6.21191C 12.9222 6.08887 12.904 5.97721 12.8857 5.87695C 12.8675 5.75391 12.8516 5.63086 12.8379 5.50781L 12.7832 5.50781C 12.765 5.63086 12.7467 5.75391 12.7285 5.87695C 12.7103 5.98177 12.6921 6.0957 12.6738 6.21875C 12.6556 6.3418 12.6328 6.45573 12.6055 6.56055L 11.7646 9.5ZM 17.0762 11.7422L 17.7803 11.7422C 17.9124 11.6191 18.0286 11.4596 18.1289 11.2637C 18.2201 11.0951 18.3066 10.8809 18.3887 10.6211C 18.4753 10.3568 18.5277 10.0286 18.5459 9.63672L 18.8945 3.19727L 24.7051 3.19727L 24.7051 11.7422L 25.6211 11.7422L 25.6211 15.0986L 24.1445 15.0986L 23.8711 13L 18.8945 13L 18.6211 15.0986L 17.0762 15.0986L 17.0762 11.7422ZM 19.667 11.7422L 22.75 11.7422L 22.75 4.46191L 20.7197 4.46191L 20.4395 9.63672C 20.4212 10.0286 20.3688 10.3568 20.2822 10.6211C 20.2002 10.8809 20.1113 11.0951 20.0156 11.2637C 19.9108 11.4596 19.7946 11.6191 19.667 11.7422ZM 27.3711 13L 27.3711 3.19727L 30.1738 3.19727C 31.5091 3.19727 32.473 3.47298 33.0654 4.02441C 33.6579 4.57585 33.9541 5.39844 33.9541 6.49219C 33.9541 7.58594 33.6579 8.40853 33.0654 8.95996C 32.473 9.50684 31.5091 9.78027 30.1738 9.78027L 29.333 9.78027L 29.333 13L 27.3711 13ZM 29.333 8.52246L 30.1738 8.52246C 30.8073 8.52246 31.2676 8.36751 31.5547 8.05762C 31.8464 7.74772 31.9922 7.22591 31.9922 6.49219C 31.9922 5.75391 31.8464 5.2321 31.5547 4.92676C 31.2676 4.61686 30.8073 4.46191 30.1738 4.46191L 29.333 4.46191L 29.333 8.52246ZM 35.1367 8.09863C 35.1367 7.20085 35.2256 6.43522 35.4033 5.80176C 35.5811 5.16829 35.8317 4.64876 36.1553 4.24316C 36.4788 3.83756 36.8685 3.53906 37.3242 3.34766C 37.7799 3.15625 38.2881 3.06055 38.8486 3.06055C 39.4092 3.06055 39.9173 3.15625 40.373 3.34766C 40.8333 3.53906 41.223 3.83756 41.542 4.24316C 41.8656 4.64876 42.1162 5.16829 42.2939 5.80176C 42.4717 6.43522 42.5605 7.20085 42.5605 8.09863C 42.5605 8.99642 42.4717 9.76204 42.2939 10.3955C 42.1162 11.029 41.8656 11.5508 41.542 11.9609C 41.223 12.3665 40.8333 12.665 40.373 12.8564C 39.9173 13.0433 39.4092 13.1367 38.8486 13.1367C 38.2881 13.1367 37.7799 13.0433 37.3242 12.8564C 36.8685 12.665 36.4788 12.3665 36.1553 11.9609C 35.8317 11.5508 35.5811 11.029 35.4033 10.3955C 35.2256 9.76204 35.1367 8.99642 35.1367 8.09863ZM 37.0986 8.09863C 37.0986 8.83691 37.1465 9.44987 37.2422 9.9375C 37.3424 10.4206 37.4723 10.8079 37.6318 11.0996C 37.7913 11.3867 37.9782 11.5895 38.1924 11.708C 38.4066 11.8219 38.6253 11.8789 38.8486 11.8789C 39.0719 11.8789 39.2907 11.8219 39.5049 11.708C 39.7191 11.5895 39.9059 11.3867 40.0654 11.0996C 40.2249 10.8079 40.3525 10.4206 40.4482 9.9375C 40.5485 9.44987 40.5986 8.83691 40.5986 8.09863C 40.5986 7.36035 40.5485 6.74967 40.4482 6.2666C 40.3525 5.77897 40.2249 5.3916 40.0654 5.10449C 39.9059 4.81283 39.7191 4.61003 39.5049 4.49609C 39.2907 4.3776 39.0719 4.31836 38.8486 4.31836C 38.6253 4.31836 38.4066 4.3776 38.1924 4.49609C 37.9782 4.61003 37.7913 4.81283 37.6318 5.10449C 37.4723 5.3916 37.3424 5.77897 37.2422 6.2666C 37.1465 6.74967 37.0986 7.36035 37.0986 8.09863ZM 44.4473 13L 44.4473 3.19727L 47.3867 3.19727C 47.9655 3.19727 48.4645 3.26107 48.8838 3.38867C 49.3031 3.51628 49.6494 3.69173 49.9229 3.91504C 50.2008 4.13835 50.4082 4.40495 50.5449 4.71484C 50.6816 5.02018 50.75 5.35514 50.75 5.71973C 50.75 6.17546 50.6566 6.54232 50.4697 6.82031C 50.2829 7.09375 50.0824 7.30566 49.8682 7.45605C 49.6175 7.62467 49.3281 7.74544 49 7.81836C 49.3919 7.89128 49.7406 8.02799 50.0459 8.22852C 50.3057 8.39714 50.5449 8.64551 50.7637 8.97363C 50.987 9.2972 51.0986 9.73014 51.0986 10.2725C 51.0986 10.6917 51.0303 11.07 50.8936 11.4072C 50.7568 11.7399 50.5381 12.027 50.2373 12.2686C 49.9411 12.5055 49.5583 12.6878 49.0889 12.8154C 48.6195 12.9385 48.0521 13 47.3867 13L 44.4473 13ZM 46.4092 11.7422L 47.3867 11.7422C 48.5534 11.7422 49.1367 11.2044 49.1367 10.1289C 49.1367 9.05339 48.5534 8.5179 47.3867 8.52246L 46.4092 8.52246L 46.4092 11.7422ZM 46.4092 7.25781L 47.3867 7.25781C 47.806 7.25781 48.1432 7.13021 48.3984 6.875C 48.6582 6.61979 48.7881 6.28255 48.7881 5.86328C 48.7881 5.44401 48.6582 5.10677 48.3984 4.85156C 48.1432 4.5918 47.806 4.46191 47.3867 4.46191L 46.4092 4.46191L 46.4092 7.25781ZM 52.9922 13L 52.9922 3.19727L 54.9541 3.19727L 54.9541 6.69727L 55.7197 6.69727C 57.0459 6.69727 58.0075 6.96842 58.6045 7.51074C 59.2015 8.05306 59.5 8.83236 59.5 9.84863C 59.5 10.8649 59.2015 11.6442 58.6045 12.1865C 58.0075 12.7288 57.0459 13 55.7197 13L 52.9922 13ZM 54.9541 11.7422L 55.7197 11.7422C 56.3532 11.7422 56.8158 11.5964 57.1074 11.3047C 57.3991 11.0085 57.5449 10.5231 57.5449 9.84863C 57.5449 9.17871 57.3991 8.69792 57.1074 8.40625C 56.8203 8.11003 56.3577 7.96191 55.7197 7.96191L 54.9541 7.96191L 54.9541 11.7422ZM 60.6211 13L 60.6211 3.19727L 62.583 3.19727L 62.583 13L 60.6211 13ZM 64.9688 13L 64.9688 3.19727L 66.9307 3.19727L 66.9307 8.72754C 66.9307 8.83236 66.9261 8.93945 66.917 9.04883C 66.9079 9.15365 66.8988 9.25163 66.8896 9.34277C 66.8805 9.44759 66.8714 9.55241 66.8623 9.65723L 66.917 9.65723C 66.9443 9.55241 66.9762 9.44759 67.0127 9.34277C 67.0492 9.25163 67.0879 9.15365 67.1289 9.04883C 67.1745 8.93945 67.2246 8.83236 67.2793 8.72754L 69.9385 3.19727L 71.832 3.19727L 71.832 13L 69.8701 13L 69.8701 7.46973C 69.8701 7.36491 69.8724 7.26009 69.877 7.15527C 69.8815 7.0459 69.8883 6.94564 69.8975 6.85449C 69.9066 6.74967 69.9202 6.64714 69.9385 6.54688L 69.8838 6.54688C 69.8564 6.65169 69.8245 6.75423 69.7881 6.85449C 69.7516 6.94564 69.7083 7.0459 69.6582 7.15527C 69.6126 7.26465 69.5671 7.36947 69.5215 7.46973L 66.8623 13L 64.9688 13ZM 66.1582 0.538086L 67.6963 0.538086C 67.6963 0.893555 67.7601 1.14648 67.8877 1.29688C 68.0153 1.44727 68.1862 1.52246 68.4004 1.52246C 68.6146 1.52246 68.7832 1.44727 68.9062 1.29688C 69.0339 1.14648 69.0977 0.893555 69.0977 0.538086L 70.6426 0.538086C 70.6426 1.17155 70.4626 1.6569 70.1025 1.99414C 69.7425 2.33138 69.1751 2.5 68.4004 2.5C 67.6257 2.5 67.0583 2.33366 66.6982 2.00098C 66.3382 1.66374 66.1582 1.17611 66.1582 0.538086ZM 78.4082 13L 78.4082 3.19727L 85.2715 3.19727L 85.2715 13L 83.3096 13L 83.3096 4.46191L 80.3701 4.46191L 80.3701 13L 78.4082 13ZM 87.1582 8.09863C 87.1582 7.20085 87.2471 6.43522 87.4248 5.80176C 87.6025 5.16829 87.8532 4.64876 88.1768 4.24316C 88.5003 3.83756 88.89 3.53906 89.3457 3.34766C 89.8014 3.15625 90.3096 3.06055 90.8701 3.06055C 91.4307 3.06055 91.9388 3.15625 92.3945 3.34766C 92.8548 3.53906 93.2445 3.83756 93.5635 4.24316C 93.887 4.64876 94.1377 5.16829 94.3154 5.80176C 94.4932 6.43522 94.582 7.20085 94.582 8.09863C 94.582 8.99642 94.4932 9.76204 94.3154 10.3955C 94.1377 11.029 93.887 11.5508 93.5635 11.9609C 93.2445 12.3665 92.8548 12.665 92.3945 12.8564C 91.9388 13.0433 91.4307 13.1367 90.8701 13.1367C 90.3096 13.1367 89.8014 13.0433 89.3457 12.8564C 88.89 12.665 88.5003 12.3665 88.1768 11.9609C 87.8532 11.5508 87.6025 11.029 87.4248 10.3955C 87.2471 9.76204 87.1582 8.99642 87.1582 8.09863ZM 89.1201 8.09863C 89.1201 8.83691 89.168 9.44987 89.2637 9.9375C 89.3639 10.4206 89.4938 10.8079 89.6533 11.0996C 89.8128 11.3867 89.9997 11.5895 90.2139 11.708C 90.4281 11.8219 90.6468 11.8789 90.8701 11.8789C 91.0934 11.8789 91.3122 11.8219 91.5264 11.708C 91.7406 11.5895 91.9274 11.3867 92.0869 11.0996C 92.2464 10.8079 92.374 10.4206 92.4697 9.9375C 92.57 9.44987 92.6201 8.83691 92.6201 8.09863C 92.6201 7.36035 92.57 6.74967 92.4697 6.2666C 92.374 5.77897 92.2464 5.3916 92.0869 5.10449C 91.9274 4.81283 91.7406 4.61003 91.5264 4.49609C 91.3122 4.3776 91.0934 4.31836 90.8701 4.31836C 90.6468 4.31836 90.4281 4.3776 90.2139 4.49609C 89.9997 4.61003 89.8128 4.81283 89.6533 5.10449C 89.4938 5.3916 89.3639 5.77897 89.2637 6.2666C 89.168 6.74967 89.1201 7.36035 89.1201 8.09863ZM 96.4688 13L 96.4688 3.19727L 99.2715 3.19727C 100.607 3.19727 101.571 3.47298 102.163 4.02441C 102.756 4.57585 103.052 5.39844 103.052 6.49219C 103.052 7.58594 102.756 8.40853 102.163 8.95996C 101.571 9.50684 100.607 9.78027 99.2715 9.78027L 98.4307 9.78027L 98.4307 13L 96.4688 13ZM 98.4307 8.52246L 99.2715 8.52246C 99.9049 8.52246 100.365 8.36751 100.652 8.05762C 100.944 7.74772 101.09 7.22591 101.09 6.49219C 101.09 5.75391 100.944 5.2321 100.652 4.92676C 100.365 4.61686 99.9049 4.46191 99.2715 4.46191L 98.4307 4.46191L 98.4307 8.52246ZM 103.387 4.46191L 103.387 3.19727L 110.25 3.19727L 110.25 4.46191L 107.803 4.46191L 107.803 13L 105.841 13L 105.841 4.46191L 103.387 4.46191ZM 110.038 13L 112.909 3.19727L 115.145 3.19727L 118.016 13L 116.054 13L 115.425 10.7578L 112.629 10.7578L 111.993 13L 110.038 13ZM 112.978 9.5L 115.076 9.5L 114.235 6.56055C 114.199 6.44661 114.172 6.3304 114.153 6.21191C 114.135 6.08887 114.117 5.97721 114.099 5.87695C 114.08 5.75391 114.064 5.63086 114.051 5.50781L 113.996 5.50781C 113.978 5.63086 113.96 5.75391 113.941 5.87695C 113.923 5.98177 113.905 6.0957 113.887 6.21875C 113.868 6.3418 113.846 6.45573 113.818 6.56055L 112.978 9.5ZM 118.289 12.9316L 118.433 11.8105L 118.569 11.8105C 118.615 11.8288 118.658 11.8424 118.699 11.8516C 118.79 11.8698 118.863 11.8789 118.918 11.8789C 119.096 11.8789 119.239 11.7969 119.349 11.6328C 119.463 11.4688 119.531 11.1771 119.554 10.7578L 119.971 3.19727L 125.918 3.19727L 125.918 13L 123.963 13L 123.963 4.46191L 121.857 4.46191L 121.509 10.7578C 121.463 11.5326 121.254 12.1227 120.88 12.5283C 120.506 12.9339 119.971 13.1367 119.273 13.1367C 119.141 13.1367 119.018 13.1276 118.904 13.1094C 118.795 13.0911 118.692 13.0684 118.597 13.041C 118.492 13.0046 118.389 12.9681 118.289 12.9316ZM 0.117188 27L 0.181641 26.2207L 0.298828 26.2207C 0.314453 26.2363 0.337891 26.248 0.369141 26.2559C 0.435547 26.2715 0.492188 26.2793 0.539062 26.2793C 0.691406 26.2793 0.833984 26.1914 0.966797 26.0156C 1.09961 25.8398 1.17773 25.5273 1.20117 25.0781L 1.55859 18.5977L 6.24023 18.5977L 6.24023 27L 5.03906 27L 5.03906 19.4414L 2.70117 19.4414L 2.40234 25.0781C 2.36328 25.7734 2.19727 26.2871 1.9043 26.6191C 1.61133 26.9512 1.23633 27.1172 0.779297 27.1172C 0.603516 27.1172 0.447266 27.0977 0.310547 27.0586C 0.240234 27.043 0.175781 27.0234 0.117188 27ZM 7.92188 24C 7.92188 23.4727 7.98242 23.0156 8.10352 22.6289C 8.22461 22.2383 8.39453 21.9141 8.61328 21.6562C 8.83203 21.3945 9.0918 21.2012 9.39258 21.0762C 9.69336 20.9473 10.0234 20.8828 10.3828 20.8828C 10.7422 20.8828 11.0723 20.9473 11.373 21.0762C 11.6738 21.2012 11.9336 21.3945 12.1523 21.6562C 12.375 21.9141 12.5449 22.2383 12.6621 22.6289C 12.7832 23.0156 12.8438 23.4727 12.8438 24L 12.8438 24.1816L 12.6035 24.4219L 9.12305 24.4219C 9.12305 25.0547 9.26367 25.5234 9.54492 25.8281C 9.82617 26.1289 10.2051 26.2793 10.6816 26.2793C 10.8652 26.2793 11.0352 26.252 11.1914 26.1973C 11.3477 26.1387 11.4863 26.0781 11.6074 26.0156C 11.752 25.9375 11.8848 25.8457 12.0059 25.7402L 12.123 25.7402L 12.5449 26.4609C 12.3926 26.5898 12.2129 26.7012 12.0059 26.7949C 11.8301 26.8848 11.6211 26.9609 11.3789 27.0234C 11.1406 27.0859 10.8691 27.1172 10.5645 27.1172C 9.75586 27.1172 9.11328 26.8594 8.63672 26.3438C 8.16016 25.8281 7.92188 25.0469 7.92188 24ZM 9.12305 23.5781L 11.6426 23.5781C 11.6426 22.9141 11.5215 22.4395 11.2793 22.1543C 11.041 21.8652 10.7422 21.7207 10.3828 21.7207C 10.0234 21.7207 9.72266 21.8652 9.48047 22.1543C 9.24219 22.4395 9.12305 22.9141 9.12305 23.5781ZM 14.2852 27L 14.2852 21L 15.4805 21L 15.4805 23.5195L 17.8828 23.5195L 17.8828 21L 19.084 21L 19.084 27L 17.8828 27L 17.8828 24.3574L 15.4805 24.3574L 15.4805 27L 14.2852 27ZM 20.8828 27L 20.8828 21L 22.0781 21L 22.0781 24.4219C 22.0781 24.5117 22.0762 24.6035 22.0723 24.6973C 22.0684 24.791 22.0625 24.8828 22.0547 24.9727C 22.0469 25.0703 22.0391 25.166 22.0312 25.2598L 22.0781 25.2598C 22.1094 25.1621 22.1426 25.0664 22.1777 24.9727C 22.2402 24.7891 22.3281 24.6055 22.4414 24.4219L 24.4805 21L 25.6816 21L 25.6816 27L 24.4805 27L 24.4805 23.5781C 24.4805 23.4883 24.4824 23.3965 24.4863 23.3027C 24.4902 23.209 24.4961 23.1172 24.5039 23.0273C 24.5117 22.9297 24.5195 22.834 24.5273 22.7402L 24.4805 22.7402C 24.4492 22.8379 24.418 22.9336 24.3867 23.0273C 24.3242 23.2109 24.2363 23.3945 24.123 23.5781L 22.0781 27L 20.8828 27ZM 27.4805 27L 27.4805 21L 28.6758 21L 28.6758 23.5195L 31.0781 23.5195L 31.0781 21L 32.2793 21L 32.2793 27L 31.0781 27L 31.0781 24.3574L 28.6758 24.3574L 28.6758 27L 27.4805 27ZM 34.0781 27L 34.0781 21L 38.0332 21L 38.0332 21.8379L 35.2734 21.8379L 35.2734 27L 34.0781 27ZM 39.0586 29.4023L 39.0586 21L 39.8965 21L 40.0137 21.7207L 40.0781 21.7207C 40.1914 21.5684 40.3301 21.4277 40.4941 21.2988C 40.6387 21.1934 40.8184 21.0977 41.0332 21.0117C 41.252 20.9258 41.5137 20.8828 41.8184 20.8828C 42.1074 20.8828 42.3809 20.9473 42.6387 21.0762C 42.8965 21.2012 43.123 21.3945 43.3184 21.6562C 43.5176 21.9141 43.6758 22.2383 43.793 22.6289C 43.9141 23.0156 43.9746 23.4727 43.9746 24C 43.9746 24.5273 43.9141 24.9863 43.793 25.377C 43.6758 25.7637 43.5078 26.0879 43.2891 26.3496C 43.0742 26.6074 42.8203 26.8008 42.5273 26.9297C 42.2383 27.0547 41.9219 27.1172 41.5781 27.1172C 41.3945 27.1172 41.2227 27.0996 41.0625 27.0645C 40.9023 27.0293 40.7617 26.9883 40.6406 26.9414C 40.4961 26.8945 40.3672 26.834 40.2539 26.7598L 40.2539 29.0391L 39.8965 29.4023L 39.0586 29.4023ZM 40.2539 26.0391C 40.3516 26.0859 40.4609 26.127 40.582 26.1621C 40.6875 26.1934 40.8066 26.2207 40.9395 26.2441C 41.0762 26.2676 41.2285 26.2793 41.3965 26.2793C 41.5879 26.2793 41.7676 26.2402 41.9355 26.1621C 42.1035 26.0801 42.25 25.9492 42.375 25.7695C 42.5 25.5898 42.5977 25.3574 42.668 25.0723C 42.7383 24.7832 42.7734 24.4258 42.7734 24C 42.7734 23.5938 42.7402 23.25 42.6738 22.9688C 42.6074 22.6875 42.5156 22.459 42.3984 22.2832C 42.2812 22.1074 42.1465 21.9805 41.9941 21.9023C 41.8418 21.8203 41.6816 21.7793 41.5137 21.7793C 41.3301 21.7793 41.1621 21.8184 41.0098 21.8965C 40.8613 21.9707 40.7305 22.0527 40.6172 22.1426C 40.4805 22.248 40.3594 22.3672 40.2539 22.5L 40.2539 26.0391ZM 45.1172 25.2598C 45.1172 24.9863 45.1641 24.7402 45.2578 24.5215C 45.3555 24.3027 45.5059 24.1152 45.709 23.959C 45.916 23.8027 46.1836 23.6816 46.5117 23.5957C 46.8398 23.5059 47.2344 23.4609 47.6953 23.4609L 48.6562 23.4609L 48.6562 23.1621C 48.6562 22.6816 48.5449 22.3223 48.3223 22.084C 48.0996 21.8418 47.791 21.7207 47.3965 21.7207C 47.2129 21.7207 47.041 21.752 46.8809 21.8145C 46.7207 21.873 46.582 21.9336 46.4648 21.9961C 46.3203 22.0742 46.1914 22.1621 46.0781 22.2598L 45.9609 22.2598L 45.5391 21.5391C 45.6914 21.418 45.8711 21.3105 46.0781 21.2168C 46.2539 21.127 46.4609 21.0488 46.6992 20.9824C 46.9414 20.916 47.2148 20.8828 47.5195 20.8828C 47.8633 20.8828 48.1777 20.9395 48.4629 21.0527C 48.752 21.1621 48.998 21.3184 49.2012 21.5215C 49.4082 21.7246 49.5684 21.9668 49.6816 22.248C 49.7988 22.5293 49.8574 22.834 49.8574 23.1621L 49.8574 27L 49.0195 27L 48.8965 26.2793L 48.8379 26.2793C 48.7246 26.4395 48.584 26.5801 48.416 26.7012C 48.2715 26.8145 48.0918 26.9121 47.877 26.9941C 47.6621 27.0762 47.4023 27.1172 47.0977 27.1172C 46.4648 27.1172 45.9766 26.9512 45.6328 26.6191C 45.2891 26.2871 45.1172 25.834 45.1172 25.2598ZM 46.3184 25.2598C 46.3184 25.5645 46.4082 25.8008 46.5879 25.9688C 46.7676 26.1367 47.0371 26.2207 47.3965 26.2207C 47.5801 26.2207 47.748 26.1836 47.9004 26.1094C 48.0527 26.0313 48.1855 25.9473 48.2988 25.8574C 48.4355 25.752 48.5547 25.6328 48.6562 25.5L 48.6562 24.2988L 47.6953 24.2988C 47.2148 24.2988 46.8652 24.3906 46.6465 24.5742C 46.4277 24.7578 46.3184 24.9863 46.3184 25.2598ZM 50.7539 26.1621L 51.3574 26.1621C 51.4785 26.0332 51.582 25.877 51.668 25.6934C 51.7461 25.5332 51.8184 25.3438 51.8848 25.125C 51.9551 24.9023 51.998 24.6465 52.0137 24.3574L 52.1953 21L 56.2148 21L 56.2148 26.1621L 56.9941 26.1621L 56.9941 28.6816L 56.0332 28.6816L 55.8574 27L 51.9551 27L 51.7734 28.6816L 50.7539 28.6816L 50.7539 26.1621ZM 52.5527 26.1621L 55.0137 26.1621L 55.0137 21.8379L 53.3379 21.8379L 53.2148 24.3574C 53.1992 24.6465 53.1562 24.9023 53.0859 25.125C 53.0195 25.3438 52.9473 25.5332 52.8691 25.6934C 52.7793 25.877 52.6738 26.0332 52.5527 26.1621ZM 58.0078 24C 58.0078 23.4727 58.0684 23.0156 58.1895 22.6289C 58.3105 22.2383 58.4824 21.9141 58.7051 21.6562C 58.9316 21.3945 59.1973 21.2012 59.502 21.0762C 59.8105 20.9473 60.1523 20.8828 60.5273 20.8828C 60.832 20.8828 61.1035 20.916 61.3418 20.9824C 61.584 21.0488 61.793 21.127 61.9688 21.2168C 62.1758 21.3145 62.3555 21.4219 62.5078 21.5391L 62.0918 22.2598L 61.9688 22.2598C 61.8477 22.1621 61.7168 22.0742 61.5762 21.9961C 61.4551 21.9336 61.3164 21.873 61.1602 21.8145C 61.0039 21.752 60.834 21.7207 60.6504 21.7207C 60.4434 21.7207 60.252 21.7617 60.0762 21.8438C 59.9004 21.9219 59.748 22.0508 59.6191 22.2305C 59.4902 22.4102 59.3887 22.6465 59.3145 22.9395C 59.2441 23.2324 59.209 23.5859 59.209 24C 59.209 24.8398 59.3496 25.4297 59.6309 25.7695C 59.9121 26.1094 60.291 26.2793 60.7676 26.2793C 60.9512 26.2793 61.1211 26.252 61.2773 26.1973C 61.4336 26.1387 61.5723 26.0781 61.6934 26.0156C 61.8379 25.9375 61.9707 25.8457 62.0918 25.7402L 62.209 25.7402L 62.6309 26.4609C 62.4785 26.5898 62.2988 26.7012 62.0918 26.7949C 61.916 26.8848 61.707 26.9609 61.4648 27.0234C 61.2266 27.0859 60.9551 27.1172 60.6504 27.1172C 59.8418 27.1172 59.1992 26.8594 58.7227 26.3438C 58.2461 25.8281 58.0078 25.0469 58.0078 24ZM 63.7734 27L 63.7734 21L 64.9688 21L 64.9688 23.5195L 65.5723 23.5195C 65.8027 23.5195 65.9805 23.4668 66.1055 23.3613C 66.2305 23.252 66.3125 23.1055 66.3516 22.9219L 66.5918 21.9023C 66.6699 21.5664 66.8027 21.3125 66.9902 21.1406C 67.1816 20.9687 67.4492 20.8828 67.793 20.8828C 67.8984 20.8828 67.9941 20.8887 68.0801 20.9004C 68.166 20.9121 68.2422 20.9258 68.3086 20.9414C 68.3867 20.9648 68.4551 20.9844 68.5137 21L 68.3906 21.7793L 68.332 21.7793C 68.3164 21.7715 68.293 21.7637 68.2617 21.7559C 68.2383 21.748 68.2109 21.7402 68.1797 21.7324C 68.1523 21.7246 68.123 21.7207 68.0918 21.7207C 67.9082 21.7207 67.7871 21.8398 67.7285 22.0781L 67.4883 23.0977C 67.4492 23.2812 67.377 23.4238 67.2715 23.5254C 67.1699 23.627 67.0625 23.7051 66.9492 23.7598C 66.8242 23.8262 66.6855 23.8672 66.5332 23.8828C 66.7012 23.9062 66.8574 23.957 67.002 24.0352C 67.123 24.0977 67.2402 24.1895 67.3535 24.3105C 67.4707 24.4316 67.5566 24.5879 67.6113 24.7793L 67.9102 25.9219C 67.9648 26.1602 68.0859 26.2793 68.2734 26.2793C 68.3203 26.2793 68.375 26.2715 68.4375 26.2559C 68.4687 26.248 68.4941 26.2363 68.5137 26.2207L 68.5723 26.2207L 68.6895 27C 68.6348 27.0234 68.5664 27.043 68.4844 27.0586C 68.3398 27.0977 68.168 27.1172 67.9688 27.1172C 67.6328 27.1172 67.3711 27.0293 67.1836 26.8535C 66.9961 26.6777 66.8594 26.4258 66.7734 26.0977L 66.4688 24.9609C 66.4219 24.7773 66.332 24.6309 66.1992 24.5215C 66.0703 24.4121 65.9004 24.3574 65.6895 24.3574L 64.9688 24.3574L 64.9688 27L 63.7734 27ZM 69.4688 24C 69.4688 22.9531 69.7031 22.1719 70.1719 21.6562C 70.6406 21.1406 71.2676 20.8828 72.0527 20.8828C 72.4434 20.8828 72.7969 20.9473 73.1133 21.0762C 73.4297 21.2012 73.6992 21.3945 73.9219 21.6562C 74.1484 21.9141 74.3223 22.2383 74.4434 22.6289C 74.5684 23.0156 74.6309 23.4727 74.6309 24C 74.6309 24.5273 74.5684 24.9863 74.4434 25.377C 74.3223 25.7637 74.1484 26.0879 73.9219 26.3496C 73.6992 26.6074 73.4297 26.8008 73.1133 26.9297C 72.7969 27.0547 72.4434 27.1172 72.0527 27.1172C 71.2676 27.1172 70.6406 26.8594 70.1719 26.3438C 69.7031 25.8281 69.4688 25.0469 69.4688 24ZM 70.6699 24C 70.6699 24.4258 70.7051 24.7832 70.7754 25.0723C 70.8496 25.3574 70.9492 25.5898 71.0742 25.7695C 71.1992 25.9492 71.3457 26.0801 71.5137 26.1621C 71.6816 26.2402 71.8613 26.2793 72.0527 26.2793C 72.2441 26.2793 72.4238 26.2402 72.5918 26.1621C 72.7598 26.0801 72.9043 25.9492 73.0254 25.7695C 73.1504 25.5898 73.248 25.3574 73.3184 25.0723C 73.3926 24.7832 73.4297 24.4258 73.4297 24C 73.4297 23.5859 73.3926 23.2324 73.3184 22.9395C 73.248 22.6465 73.1504 22.4102 73.0254 22.2305C 72.9043 22.0508 72.7598 21.9219 72.5918 21.8438C 72.4238 21.7617 72.2441 21.7207 72.0527 21.7207C 71.8613 21.7207 71.6816 21.7617 71.5137 21.8438C 71.3457 21.9219 71.1992 22.0508 71.0742 22.2305C 70.9492 22.4102 70.8496 22.6465 70.7754 22.9395C 70.7051 23.2324 70.6699 23.5859 70.6699 24ZM 76.1367 27L 76.1367 21L 77.332 21L 77.332 24.4219C 77.332 24.5117 77.3301 24.6035 77.3262 24.6973C 77.3223 24.791 77.3164 24.8828 77.3086 24.9727C 77.3008 25.0703 77.293 25.166 77.2852 25.2598L 77.332 25.2598C 77.3633 25.1621 77.3965 25.0664 77.4316 24.9727C 77.4941 24.7891 77.582 24.6055 77.6953 24.4219L 79.7344 21L 80.9355 21L 80.9355 27L 79.7344 27L 79.7344 23.5781C 79.7344 23.4883 79.7363 23.3965 79.7402 23.3027C 79.7441 23.209 79.75 23.1172 79.7578 23.0273C 79.7656 22.9297 79.7734 22.834 79.7812 22.7402L 79.7344 22.7402C 79.7031 22.8379 79.6719 22.9336 79.6406 23.0273C 79.5781 23.2109 79.4902 23.3945 79.377 23.5781L 77.332 27L 76.1367 27ZM 76.7344 18.8379L 77.8125 18.8379C 77.8125 19.1426 77.873 19.3594 77.9941 19.4883C 78.1152 19.6172 78.2949 19.6816 78.5332 19.6816C 78.7715 19.6816 78.9512 19.6172 79.0723 19.4883C 79.1934 19.3594 79.2539 19.1426 79.2539 18.8379L 80.332 18.8379C 80.332 19.3184 80.1816 19.6992 79.8809 19.9805C 79.584 20.2617 79.1348 20.4023 78.5332 20.4023C 77.9316 20.4023 77.4805 20.2617 77.1797 19.9805C 76.8828 19.6992 76.7344 19.3184 76.7344 18.8379ZM 85.9102 24C 85.9102 22.9531 86.1445 22.1719 86.6133 21.6562C 87.082 21.1406 87.709 20.8828 88.4941 20.8828C 88.8848 20.8828 89.2383 20.9473 89.5547 21.0762C 89.8711 21.2012 90.1406 21.3945 90.3633 21.6562C 90.5898 21.9141 90.7637 22.2383 90.8848 22.6289C 91.0098 23.0156 91.0723 23.4727 91.0723 24C 91.0723 24.5273 91.0098 24.9863 90.8848 25.377C 90.7637 25.7637 90.5898 26.0879 90.3633 26.3496C 90.1406 26.6074 89.8711 26.8008 89.5547 26.9297C 89.2383 27.0547 88.8848 27.1172 88.4941 27.1172C 87.709 27.1172 87.082 26.8594 86.6133 26.3438C 86.1445 25.8281 85.9102 25.0469 85.9102 24ZM 87.1113 24C 87.1113 24.4258 87.1465 24.7832 87.2168 25.0723C 87.291 25.3574 87.3906 25.5898 87.5156 25.7695C 87.6406 25.9492 87.7871 26.0801 87.9551 26.1621C 88.123 26.2402 88.3027 26.2793 88.4941 26.2793C 88.6855 26.2793 88.8652 26.2402 89.0332 26.1621C 89.2012 26.0801 89.3457 25.9492 89.4668 25.7695C 89.5918 25.5898 89.6895 25.3574 89.7598 25.0723C 89.834 24.7832 89.8711 24.4258 89.8711 24C 89.8711 23.5859 89.834 23.2324 89.7598 22.9395C 89.6895 22.6465 89.5918 22.4102 89.4668 22.2305C 89.3457 22.0508 89.2012 21.9219 89.0332 21.8438C 88.8652 21.7617 88.6855 21.7207 88.4941 21.7207C 88.3027 21.7207 88.123 21.7617 87.9551 21.8438C 87.7871 21.9219 87.6406 22.0508 87.5156 22.2305C 87.3906 22.4102 87.291 22.6465 87.2168 22.9395C 87.1465 23.2324 87.1113 23.5859 87.1113 24ZM 92.3379 24.2402L 92.3379 23.0977C 92.3379 22.3281 92.3984 21.6875 92.5195 21.1758C 92.6445 20.6602 92.832 20.2363 93.082 19.9043C 93.3359 19.5723 93.6582 19.3164 94.0488 19.1367C 94.4434 18.9531 94.9121 18.8145 95.4551 18.7207L 97.1367 18.4219L 97.3184 19.4414L 95.6367 19.7402C 95.2461 19.8105 94.9102 19.9082 94.6289 20.0332C 94.3477 20.1582 94.1172 20.3223 93.9375 20.5254C 93.7578 20.7285 93.625 20.9766 93.5391 21.2695C 93.457 21.5625 93.416 21.9121 93.416 22.3184C 93.5996 22.0137 93.8379 21.7773 94.1309 21.6094C 94.4238 21.4414 94.7656 21.3574 95.1562 21.3574C 95.4531 21.3574 95.7363 21.4199 96.0059 21.5449C 96.2793 21.6699 96.5156 21.8555 96.7148 22.1016C 96.9141 22.3437 97.0742 22.6445 97.1953 23.0039C 97.3164 23.3633 97.377 23.7754 97.377 24.2402C 97.377 24.7051 97.3164 25.1172 97.1953 25.4766C 97.0742 25.8359 96.9023 26.1387 96.6797 26.3848C 96.457 26.627 96.1914 26.8105 95.8828 26.9355C 95.5742 27.0566 95.2324 27.1172 94.8574 27.1172C 94.4824 27.1172 94.1406 27.0566 93.832 26.9355C 93.5234 26.8105 93.2559 26.627 93.0293 26.3848C 92.8066 26.1387 92.6348 25.8359 92.5137 25.4766C 92.3965 25.1172 92.3379 24.7051 92.3379 24.2402ZM 93.5332 24.2402C 93.5332 24.959 93.6641 25.4785 93.9258 25.7988C 94.1875 26.1191 94.498 26.2793 94.8574 26.2793C 95.2168 26.2793 95.5254 26.1191 95.7832 25.7988C 96.0449 25.4785 96.1758 24.959 96.1758 24.2402C 96.1758 23.5527 96.0449 23.0508 95.7832 22.7344C 95.5254 22.418 95.2168 22.2598 94.8574 22.2598C 94.498 22.2598 94.1875 22.418 93.9258 22.7344C 93.6641 23.0508 93.5332 23.5527 93.5332 24.2402ZM 97.9805 27L 98.0449 26.2207L 98.1621 26.2207C 98.1777 26.2363 98.2012 26.248 98.2324 26.2559C 98.2988 26.2715 98.3555 26.2793 98.4023 26.2793C 98.5547 26.2793 98.6836 26.1992 98.7891 26.0391C 98.8984 25.8789 98.9707 25.5586 99.0059 25.0781L 99.2461 21L 103.441 21L 103.441 27L 102.246 27L 102.246 21.8379L 100.383 21.8379L 100.201 25.0781C 100.162 25.7969 100.004 26.3164 99.7266 26.6367C 99.4531 26.957 99.0918 27.1172 98.6426 27.1172C 98.4668 27.1172 98.3105 27.0977 98.1738 27.0586C 98.1035 27.043 98.0391 27.0234 97.9805 27ZM 104.883 25.2598C 104.883 24.9863 104.93 24.7402 105.023 24.5215C 105.121 24.3027 105.271 24.1152 105.475 23.959C 105.682 23.8027 105.949 23.6816 106.277 23.5957C 106.605 23.5059 107 23.4609 107.461 23.4609L 108.422 23.4609L 108.422 23.1621C 108.422 22.6816 108.311 22.3223 108.088 22.084C 107.865 21.8418 107.557 21.7207 107.162 21.7207C 106.979 21.7207 106.807 21.752 106.646 21.8145C 106.486 21.873 106.348 21.9336 106.23 21.9961C 106.086 22.0742 105.957 22.1621 105.844 22.2598L 105.727 22.2598L 105.305 21.5391C 105.457 21.418 105.637 21.3105 105.844 21.2168C 106.02 21.127 106.227 21.0488 106.465 20.9824C 106.707 20.916 106.98 20.8828 107.285 20.8828C 107.629 20.8828 107.943 20.9395 108.229 21.0527C 108.518 21.1621 108.764 21.3184 108.967 21.5215C 109.174 21.7246 109.334 21.9668 109.447 22.248C 109.564 22.5293 109.623 22.834 109.623 23.1621L 109.623 27L 108.785 27L 108.662 26.2793L 108.604 26.2793C 108.49 26.4395 108.35 26.5801 108.182 26.7012C 108.037 26.8145 107.857 26.9121 107.643 26.9941C 107.428 27.0762 107.168 27.1172 106.863 27.1172C 106.23 27.1172 105.742 26.9512 105.398 26.6191C 105.055 26.2871 104.883 25.834 104.883 25.2598ZM 106.084 25.2598C 106.084 25.5645 106.174 25.8008 106.354 25.9688C 106.533 26.1367 106.803 26.2207 107.162 26.2207C 107.346 26.2207 107.514 26.1836 107.666 26.1094C 107.818 26.0313 107.951 25.9473 108.064 25.8574C 108.201 25.752 108.32 25.6328 108.422 25.5L 108.422 24.2988L 107.461 24.2988C 106.98 24.2988 106.631 24.3906 106.412 24.5742C 106.193 24.7578 106.084 24.9863 106.084 25.2598ZM 111.059 24C 111.059 23.4727 111.119 23.0156 111.24 22.6289C 111.361 22.2383 111.533 21.9141 111.756 21.6562C 111.982 21.3945 112.248 21.2012 112.553 21.0762C 112.861 20.9473 113.203 20.8828 113.578 20.8828C 113.883 20.8828 114.154 20.916 114.393 20.9824C 114.635 21.0488 114.844 21.127 115.02 21.2168C 115.227 21.3145 115.406 21.4219 115.559 21.5391L 115.143 22.2598L 115.02 22.2598C 114.898 22.1621 114.768 22.0742 114.627 21.9961C 114.506 21.9336 114.367 21.873 114.211 21.8145C 114.055 21.752 113.885 21.7207 113.701 21.7207C 113.494 21.7207 113.303 21.7617 113.127 21.8438C 112.951 21.9219 112.799 22.0508 112.67 22.2305C 112.541 22.4102 112.439 22.6465 112.365 22.9395C 112.295 23.2324 112.26 23.5859 112.26 24C 112.26 24.8398 112.4 25.4297 112.682 25.7695C 112.963 26.1094 113.342 26.2793 113.818 26.2793C 114.002 26.2793 114.172 26.252 114.328 26.1973C 114.484 26.1387 114.623 26.0781 114.744 26.0156C 114.889 25.9375 115.021 25.8457 115.143 25.7402L 115.26 25.7402L 115.682 26.4609C 115.529 26.5898 115.35 26.7012 115.143 26.7949C 114.967 26.8848 114.758 26.9609 114.516 27.0234C 114.277 27.0859 114.006 27.1172 113.701 27.1172C 112.893 27.1172 112.25 26.8594 111.773 26.3438C 111.297 25.8281 111.059 25.0469 111.059 24ZM 116.039 21.8379L 116.039 21L 120.844 21L 120.844 21.8379L 119.039 21.8379L 119.039 27L 117.844 27L 117.844 21.8379L 116.039 21.8379ZM 121.863 27L 121.863 21L 123.059 21L 123.059 24.4219C 123.059 24.5117 123.057 24.6035 123.053 24.6973C 123.049 24.791 123.043 24.8828 123.035 24.9727C 123.027 25.0703 123.02 25.166 123.012 25.2598L 123.059 25.2598C 123.09 25.1621 123.123 25.0664 123.158 24.9727C 123.221 24.7891 123.309 24.6055 123.422 24.4219L 125.461 21L 126.662 21L 126.662 27L 125.461 27L 125.461 23.5781C 125.461 23.4883 125.463 23.3965 125.467 23.3027C 125.471 23.209 125.477 23.1172 125.484 23.0273C 125.492 22.9297 125.5 22.834 125.508 22.7402L 125.461 22.7402C 125.43 22.8379 125.398 22.9336 125.367 23.0273C 125.305 23.2109 125.217 23.3945 125.104 23.5781L 123.059 27L 121.863 27Z"/>
<path id="path1_fill" d="M 0 0L 24 0L 24 18L 0 18L 0 0Z"/>
<path id="path2_fill" d="M 0 0L 24 0L 24 3L 0 3L 0 0Z"/>
<path id="path3_fill" d="M 1.5293 16L 1.5293 3.39648L 4.05176 3.39648L 4.05176 8.71387L 4.58789 8.71387C 5.04492 8.71387 5.37598 8.61719 5.58105 8.42383C 5.78613 8.23047 5.93555 7.90527 6.0293 7.44824L 6.57422 5.02246C 6.67969 4.51855 6.91992 4.09375 7.29492 3.74805C 7.67578 3.39648 8.18555 3.2207 8.82422 3.2207C 9.05273 3.2207 9.25781 3.23535 9.43945 3.26465C 9.62695 3.29395 9.78516 3.32617 9.91406 3.36133C 10.0723 3.4082 10.2187 3.45215 10.3535 3.49316L 10.1689 4.92578L 10.0811 4.92578C 10.0576 4.91406 10.0225 4.90234 9.97559 4.89062C 9.94043 4.87891 9.89941 4.86719 9.85254 4.85547C 9.81152 4.84375 9.76758 4.83789 9.7207 4.83789C 9.38672 4.83789 9.17578 5.04883 9.08789 5.4707L 8.63965 7.53613C 8.5459 7.95801 8.39648 8.29199 8.19141 8.53809C 7.98633 8.78418 7.77539 8.97461 7.55859 9.10938C 7.30664 9.26172 7.03711 9.36719 6.75 9.42578C 7.07227 9.48438 7.37109 9.59863 7.64648 9.76855C 7.88672 9.91504 8.11816 10.1201 8.34082 10.3838C 8.56348 10.6475 8.72461 10.9902 8.82422 11.4121L 9.36035 13.9258C 9.44238 14.3477 9.65918 14.5586 10.0107 14.5586C 10.0693 14.5586 10.1455 14.5469 10.2393 14.5234C 10.2744 14.5117 10.3125 14.4941 10.3535 14.4707L 10.4414 14.4707L 10.6172 15.9121C 10.5 15.959 10.3682 16.0059 10.2217 16.0527C 10.0869 16.0879 9.92285 16.1172 9.72949 16.1406C 9.54199 16.1641 9.32813 16.1758 9.08789 16.1758C 8.44922 16.1758 7.94238 16.0029 7.56738 15.6572C 7.19238 15.3115 6.94922 14.8867 6.83789 14.3828L 6.21387 11.5C 6.12012 11.0898 5.97363 10.7939 5.77441 10.6123C 5.5752 10.4248 5.27051 10.3311 4.86035 10.3311L 4.05176 10.3311L 4.05176 16L 1.5293 16ZM 12.6035 16L 12.6035 3.39648L 21.4277 3.39648L 21.4277 16L 18.9053 16L 18.9053 5.02246L 15.126 5.02246L 15.126 16L 12.6035 16Z"/>
</defs>
</svg>
